<?xml version="1.0" encoding="iso-8859-1"?>
<!-- Generator: Adobe Illustrator 19.0.0, SVG Export Plug-In . SVG Version: 6.00 Build 0)  -->
<svg version="1.1" id="Layer_1" xmlns="http://www.w3.org/2000/svg" xmlns:xlink="http://www.w3.org/1999/xlink" x="0px" y="0px"
	 viewBox="0 0 512 512" style="enable-background:new 0 0 512 512;" xml:space="preserve">
<polygon style="fill:#FFDA44;" points="356.168,33.392 356.168,0.001 189.212,0.001 189.212,33.392 155.821,33.392 155.821,66.783 
	122.429,66.783 122.429,100.177 89.043,100.177 89.043,256.003 122.429,256.003 122.429,289.392 155.821,289.392 155.821,322.783 
	189.212,322.783 189.212,356.174 356.168,356.174 356.168,322.783 389.56,322.783 389.56,256.001 278.255,256.001 278.255,222.609 
	278.255,222.609 244.87,222.609 244.87,133.566 278.255,133.566 278.255,100.174 278.255,100.174 278.255,100.174 389.56,100.174 
	389.56,33.392 "/>
<rect x="155.826" y="33.392" width="33.391" height="33.391"/>
<rect x="122.435" y="66.783" width="33.391" height="33.391"/>
<polygon points="122.435,256.001 122.435,100.174 89.043,100.174 89.043,256.001 122.435,256.001 122.435,289.392 155.826,289.392 
	155.826,256.001 "/>
<rect x="155.826" y="289.392" width="33.391" height="33.391"/>
<polygon points="244.871,222.609 244.871,133.567 211.479,133.567 211.479,222.61 244.87,222.61 244.87,256.001 278.261,256.001 
	278.261,222.609 "/>
<rect x="244.87" y="100.174" width="33.391" height="33.391"/>
<rect x="189.217" y="0.001" width="166.957" height="33.391"/>
<polygon points="356.174,33.392 356.174,66.783 278.261,66.783 278.261,100.174 356.174,100.174 389.565,100.174 389.565,66.783 
	389.565,33.392 "/>
<polygon points="278.261,256.001 278.261,289.392 356.174,289.392 356.174,322.783 389.565,322.783 389.565,289.392 
	389.565,256.001 356.174,256.001 "/>
<rect x="189.217" y="322.783" width="166.957" height="33.391"/>
<g>
	<rect x="244.87" y="467.479" style="fill:#FFDA44;" width="33.391" height="44.521"/>
	<rect x="244.87" y="389.566" style="fill:#FFDA44;" width="33.391" height="44.521"/>
	<rect x="200.348" y="434.087" style="fill:#FFDA44;" width="44.522" height="33.391"/>
	<rect x="278.261" y="434.087" style="fill:#FFDA44;" width="44.522" height="33.391"/>
	<rect x="44.522" y="434.087" style="fill:#FFDA44;" width="33.391" height="44.521"/>
	<rect x="44.522" y="356.174" style="fill:#FFDA44;" width="33.391" height="44.521"/>
	<rect y="400.696" style="fill:#FFDA44;" width="44.522" height="33.391"/>
	<rect x="77.913" y="400.696" style="fill:#FFDA44;" width="44.522" height="33.391"/>
	<rect x="434.087" y="434.087" style="fill:#FFDA44;" width="33.391" height="44.521"/>
	<rect x="434.087" y="356.174" style="fill:#FFDA44;" width="33.391" height="44.521"/>
	<rect x="389.565" y="400.696" style="fill:#FFDA44;" width="44.522" height="33.391"/>
	<rect x="467.478" y="400.696" style="fill:#FFDA44;" width="44.522" height="33.391"/>
</g>
<g>
	<rect x="44.522" y="400.696" style="fill:#FF9811;" width="33.391" height="33.391"/>
	<rect x="434.087" y="400.696" style="fill:#FF9811;" width="33.391" height="33.391"/>
	<rect x="244.87" y="434.087" style="fill:#FF9811;" width="33.391" height="33.391"/>
</g>
<g>
</g>
<g>
</g>
<g>
</g>
<g>
</g>
<g>
</g>
<g>
</g>
<g>
</g>
<g>
</g>
<g>
</g>
<g>
</g>
<g>
</g>
<g>
</g>
<g>
</g>
<g>
</g>
<g>
</g>
</svg>
